<?xml version="1.0" encoding="UTF-8" standalone="no"?>
<!-- Generator: Adobe Illustrator 22.1.0, SVG Export Plug-In . SVG Version: 6.00 Build 0)  -->

<svg
   version="1.2"
   id="Layer_1"
   x="0px"
   y="0px"
   viewBox="0 0 2350 2314.8"
   xml:space="preserve"
   sodipodi:docname="github-dark.svg"
   inkscape:version="1.1 (c68e22c387, 2021-05-23)"
   xmlns:inkscape="http://www.inkscape.org/namespaces/inkscape"
   xmlns:sodipodi="http://sodipodi.sourceforge.net/DTD/sodipodi-0.dtd"
   xmlns="http://www.w3.org/2000/svg"
   xmlns:svg="http://www.w3.org/2000/svg"><defs
   id="defs7" /><sodipodi:namedview
   id="namedview5"
   pagecolor="#ffffff"
   bordercolor="#666666"
   borderopacity="1.0"
   inkscape:pageshadow="2"
   inkscape:pageopacity="0.0"
   inkscape:pagecheckerboard="0"
   showgrid="false"
   inkscape:zoom="0.07820085"
   inkscape:cx="1054.9757"
   inkscape:cy="210.99515"
   inkscape:window-width="1366"
   inkscape:window-height="697"
   inkscape:window-x="-8"
   inkscape:window-y="-8"
   inkscape:window-maximized="1"
   inkscape:current-layer="Layer_1" />
<path
   d="m 1175,0 c 649.2,0 1175,525.8 1175,1175 0,514.1 -329,948.8 -787.2,1107.4 0,-8.8 2.9,-17.6 2.9,-26.4 v -267.6 c 0,-117.5 -76.4,-276.1 -185.1,-331.9 390.6,-41.1 575.7,-235 575.7,-499.4 0,-114.6 -47,-226.2 -129.3,-317.3 29.4,-91.1 61.7,-282 -8.8,-352.5 -176.2,0 -282,114.5 -308.4,143.9 -88.1,-29.4 -182.1,-47 -284.9,-47 -99.8,0 -196.8,17.6 -284.9,47 -26.4,-29.3 -132.1,-143.9 -308.4,-143.9 -73.5,73.4 -38.2,261.4 -11.8,352.5 -82.3,94 -132.2,202.7 -132.2,317.3 0,264.4 188,458.3 581.6,505.3 -67.6,35.2 -123.4,108.6 -155.7,190.9 -58.8,8.9 -123.4,11.8 -164.5,11.8 -88.1,0 -108.7,-14.7 -155.7,-76.4 -47,-61.6 -96.9,-102.8 -158.6,-120.4 -32.3,-2.9 -55.8,20.6 -26.4,44.1 96.9,67.6 102.8,176.3 141,246.8 32.3,64.7 105.8,99.9 185.1,99.9 h 146.9 v 199.8 c 0,20.5 2.9,41.1 8.8,55.8 C 378.9,2185.5 0,1727.2 0,1175 0,525.8 525.8,0 1175,0 Z"
   id="path2"
   style="fill:#ffffff" />
<path
   d="m 1562.8,2282.4 c 0,-8.8 2.9,-17.6 2.9,-26.4 v -267.6 c 0,-117.5 -76.4,-276.1 -185.1,-331.9 390.6,-41.1 575.7,-235 575.7,-499.4 0,-114.6 -47,-226.2 -129.3,-317.3 29.4,-91.1 61.7,-282 -8.8,-352.5 -176.2,0 -282,114.5 -308.4,143.9 -88.1,-29.4 -182.1,-47 -284.9,-47 -99.8,0 -196.8,17.6 -284.9,47 -26.4,-29.3 -132.1,-143.9 -308.4,-143.9 -73.5,73.4 -38.2,261.4 -11.8,352.5 -82.3,94 -132.2,202.7 -132.2,317.3 0,264.4 188,458.3 581.6,505.3 -67.6,35.2 -123.4,108.6 -155.7,190.9 -58.8,8.9 -123.4,11.8 -164.5,11.8 -88.1,0 -108.7,-14.7 -155.7,-76.4 -47,-61.6 -96.9,-102.8 -158.6,-120.4 -32.3,-2.9 -55.8,20.6 -26.4,44.1 96.9,67.6 102.8,176.3 141,246.8 32.3,64.7 105.8,99.9 185.1,99.9 h 146.9 v 199.8 c 0,20.5 2.9,41.1 8.8,55.8 225.3955,10.1031 486.2391,25.3435 672.7,-32.3 z"
   id="path1135"
   sodipodi:nodetypes="csscscccscccsccsccccscscc"
   style="fill:#2b2b2b;fill-opacity:1" /></svg>
