<?xml version="1.0" encoding="UTF-8" standalone="no"?>
<!-- Generator: Adobe Illustrator 19.0.0, SVG Export Plug-In . SVG Version: 6.00 Build 0)  -->

<svg
   version="1.1"
   id="Layer_1"
   x="0px"
   y="0px"
   viewBox="0 0 504.4 504.4"
   style="enable-background:new 0 0 504.4 504.4;"
   xml:space="preserve"
   sodipodi:docname="linkedin-dark.svg"
   inkscape:version="1.1 (c68e22c387, 2021-05-23)"
   xmlns:inkscape="http://www.inkscape.org/namespaces/inkscape"
   xmlns:sodipodi="http://sodipodi.sourceforge.net/DTD/sodipodi-0.dtd"
   xmlns="http://www.w3.org/2000/svg"
   xmlns:svg="http://www.w3.org/2000/svg"><defs
   id="defs41" /><sodipodi:namedview
   id="namedview39"
   pagecolor="#ffffff"
   bordercolor="#666666"
   borderopacity="1.0"
   inkscape:pageshadow="2"
   inkscape:pageopacity="0.0"
   inkscape:pagecheckerboard="0"
   showgrid="false"
   inkscape:zoom="1.4355221"
   inkscape:cx="253.91459"
   inkscape:cy="270.63325"
   inkscape:window-width="1366"
   inkscape:window-height="697"
   inkscape:window-x="-8"
   inkscape:window-y="-8"
   inkscape:window-maximized="1"
   inkscape:current-layer="Layer_1" />
<g
   id="g6"
   style="fill:#ff0000;fill-opacity:1">
	<g
   id="g4"
   style="fill:#ff0000;fill-opacity:1">
		<path
   d="M377.6,0.2H126.4C56.8,0.2,0,57,0,126.6v251.6c0,69.2,56.8,126,126.4,126H378c69.6,0,126.4-56.8,126.4-126.4V126.6    C504,57,447.2,0.2,377.6,0.2z M168,408.2H96v-208h72V408.2z M131.6,168.2c-20.4,0-36.8-16.4-36.8-36.8c0-20.4,16.4-36.8,36.8-36.8    c20.4,0,36.8,16.4,36.8,36.8C168,151.8,151.6,168.2,131.6,168.2z M408.4,408.2H408h-60V307.4c0-24.4-3.2-55.6-36.4-55.6    c-34,0-39.6,26.4-39.6,54v102.4h-60v-208h56v28h1.6c8.8-16,29.2-28.4,61.2-28.4c66,0,77.6,38,77.6,94.4V408.2z"
   id="path2"
   style="fill:#ffffff;fill-opacity:1" />
	</g>
</g>
<g
   id="g8">
</g>
<g
   id="g10">
</g>
<g
   id="g12">
</g>
<g
   id="g14">
</g>
<g
   id="g16">
</g>
<g
   id="g18">
</g>
<g
   id="g20">
</g>
<g
   id="g22">
</g>
<g
   id="g24">
</g>
<g
   id="g26">
</g>
<g
   id="g28">
</g>
<g
   id="g30">
</g>
<g
   id="g32">
</g>
<g
   id="g34">
</g>
<g
   id="g36">
</g>
<circle
   style="fill:#2b2b2b;stroke-width:1.1209"
   id="path1313"
   cx="131.74925"
   cy="131.5696"
   r="39.010201" /><rect
   style="fill:#2b2b2b;fill-opacity:1"
   id="rect1438"
   width="72"
   height="208"
   x="96"
   y="200.2" /><path
   style="fill:#2b2b2b;fill-opacity:1;stroke:none;stroke-width:1px;stroke-linecap:butt;stroke-linejoin:miter;stroke-opacity:1"
   d="m 212,200.2 v 208 h 60 l 1.07138,-119.80318 c 0,0.37799 5.38897,-37.02298 38.93806,-36.1815 16.25375,0.40767 34.24086,9.21093 35.42513,43.84421 C 348.60108,330.17352 348,408.2 348,408.2 h 60.4 l -0.18615,-124.67946 -0.69661,-16.71865 -2.78644,-16.02205 C 394.3307,199.65733 347.541,197.34166 313.4748,200.62387 295.93446,203.63477 277.28245,213.20556 269.6,228.2 H 268 v -28 z"
   id="path2397"
   sodipodi:nodetypes="ccccsscccccccccc" /></svg>
