<?xml version="1.0" encoding="UTF-8" standalone="no"?>
<!-- Generator: Adobe Illustrator 19.0.0, SVG Export Plug-In . SVG Version: 6.00 Build 0)  -->

<svg
   version="1.1"
   id="Layer_1"
   x="0px"
   y="0px"
   viewBox="0 0 504.4 504.4"
   style="enable-background:new 0 0 504.4 504.4;"
   xml:space="preserve"
   sodipodi:docname="linkedin-svgrepo-com.svg"
   inkscape:version="1.1 (c68e22c387, 2021-05-23)"
   xmlns:inkscape="http://www.inkscape.org/namespaces/inkscape"
   xmlns:sodipodi="http://sodipodi.sourceforge.net/DTD/sodipodi-0.dtd"
   xmlns="http://www.w3.org/2000/svg"
   xmlns:svg="http://www.w3.org/2000/svg"><defs
   id="defs41" /><sodipodi:namedview
   id="namedview39"
   pagecolor="#ffffff"
   bordercolor="#666666"
   borderopacity="1.0"
   inkscape:pageshadow="2"
   inkscape:pageopacity="0.0"
   inkscape:pagecheckerboard="0"
   showgrid="false"
   inkscape:zoom="1.0150674"
   inkscape:cx="251.70742"
   inkscape:cy="252.69258"
   inkscape:window-width="1366"
   inkscape:window-height="697"
   inkscape:window-x="-8"
   inkscape:window-y="-8"
   inkscape:window-maximized="1"
   inkscape:current-layer="Layer_1" />
<g
   id="g6"
   style="fill:#2b2b2b;fill-opacity:1">
	<g
   id="g4"
   style="fill:#2b2b2b;fill-opacity:1">
		<path
   d="M377.6,0.2H126.4C56.8,0.2,0,57,0,126.6v251.6c0,69.2,56.8,126,126.4,126H378c69.6,0,126.4-56.8,126.4-126.4V126.6    C504,57,447.2,0.2,377.6,0.2z M168,408.2H96v-208h72V408.2z M131.6,168.2c-20.4,0-36.8-16.4-36.8-36.8c0-20.4,16.4-36.8,36.8-36.8    c20.4,0,36.8,16.4,36.8,36.8C168,151.8,151.6,168.2,131.6,168.2z M408.4,408.2H408h-60V307.4c0-24.4-3.2-55.6-36.4-55.6    c-34,0-39.6,26.4-39.6,54v102.4h-60v-208h56v28h1.6c8.8-16,29.2-28.4,61.2-28.4c66,0,77.6,38,77.6,94.4V408.2z"
   id="path2"
   style="fill:#2b2b2b;fill-opacity:1" />
	</g>
</g>
<g
   id="g8">
</g>
<g
   id="g10">
</g>
<g
   id="g12">
</g>
<g
   id="g14">
</g>
<g
   id="g16">
</g>
<g
   id="g18">
</g>
<g
   id="g20">
</g>
<g
   id="g22">
</g>
<g
   id="g24">
</g>
<g
   id="g26">
</g>
<g
   id="g28">
</g>
<g
   id="g30">
</g>
<g
   id="g32">
</g>
<g
   id="g34">
</g>
<g
   id="g36">
</g>
</svg>
