<?xml version="1.0" encoding="iso-8859-1"?>
<!-- Generator: Adobe Illustrator 19.0.0, SVG Export Plug-In . SVG Version: 6.00 Build 0)  -->
<svg version="1.1" id="Layer_1" xmlns="http://www.w3.org/2000/svg" xmlns:xlink="http://www.w3.org/1999/xlink" x="0px" y="0px"
	 viewBox="0 0 511.999 511.999" style="enable-background:new 0 0 511.999 511.999;" xml:space="preserve">
<path style="fill:#F2E7BF;" d="M253.261,15.886c-14.616-3.982-29.28-6.573-43.851-7.854c-11.781-1.035-18.138,13.533-9.346,21.442
	c67.276,60.509,98.96,155.723,73.937,249.113C248.976,371.978,173.929,438.594,85.41,457.358
	c-11.582,2.455-13.335,18.253-2.602,23.251c12.943,6.027,26.584,11.017,40.851,14.839
	c132.347,35.462,268.378-42.943,304.081-175.161C463.326,188.497,384.973,51.772,253.261,15.886z"/>
<path style="opacity:0.05;enable-background:new    ;" d="M278.749,332.349c-8.718-2.336-17.504-2.405-25.751-0.593
	c-11.499,21.475-25.946,40.802-42.672,57.607c1.801,22.322,17.346,42.125,40.216,48.253c29.068,7.789,58.947-9.462,66.737-38.53
	C325.068,370.017,307.817,340.138,278.749,332.349z M304.19,36.034c-11.666,9.021-19.186,23.146-19.186,39.034
	c0,27.243,22.085,49.328,49.328,49.328c19.478,0,36.313-11.293,44.331-27.684C358.324,72.188,333.185,51.414,304.19,36.034z"/>
<path d="M329.76,196.779c0.691,0.185,1.387,0.273,2.07,0.273c3.522,0,6.747-2.351,7.701-5.916c1.14-4.256-1.385-8.631-5.642-9.772
	l-8.51-2.28c-4.26-1.14-8.631,1.386-9.772,5.643c-1.14,4.256,1.385,8.631,5.643,9.772L329.76,196.779z M287.068,355.521
	c-4.965-1.33-10.148-0.646-14.599,1.922c-4.451,2.57-7.634,6.718-8.964,11.683c-2.746,10.247,3.357,20.817,13.603,23.563
	c0.691,0.185,1.387,0.274,2.07,0.274c3.522,0,6.747-2.351,7.701-5.915c1.14-4.256-1.385-8.632-5.642-9.772
	c-1.748-0.468-2.788-2.272-2.321-4.02c0.306-1.143,1.089-1.738,1.53-1.993c0.44-0.252,1.349-0.634,2.492-0.328
	c4.259,1.143,8.63-1.386,9.771-5.643C293.851,361.037,291.324,356.661,287.068,355.521z M339.994,247.496
	c-1.14,4.256,1.385,8.632,5.642,9.772c6.798,1.821,10.846,8.834,9.025,15.631c-1.822,6.797-8.839,10.846-15.63,9.025
	c-4.256-1.141-8.632,1.386-9.772,5.643c-0.185,0.689-0.274,1.383-0.274,2.065c-0.002,3.526,2.349,6.751,5.916,7.707
	c3.294,0.882,6.046,2.994,7.749,5.946c1.705,2.952,2.157,6.392,1.276,9.684c-0.883,3.293-2.994,6.045-5.947,7.749
	c-2.952,1.704-6.392,2.158-9.683,1.274c-4.258-1.139-8.632,1.385-9.772,5.642c-1.14,4.256,1.385,8.632,5.642,9.771
	c2.474,0.664,4.985,0.992,7.48,0.992c4.977,0,9.888-1.305,14.313-3.86c6.644-3.835,11.396-10.029,13.381-17.438
	c1.986-7.41,0.967-15.15-2.868-21.794c-0.106-0.183-0.214-0.365-0.323-0.545c6.626-3.64,11.82-9.868,13.928-17.731
	c4.099-15.296-5.011-31.076-20.308-35.175C345.508,240.716,341.133,243.239,339.994,247.496z M255.359,8.188
	c-14.836-4.042-30.061-6.768-45.251-8.104c-8.845-0.783-16.864,3.989-20.41,12.147c-3.542,8.146-1.567,17.243,5.03,23.175
	c32.494,29.226,56.452,66.791,69.288,108.634c13.191,43.002,13.979,88.813,2.278,132.483
	c-11.702,43.669-35.29,82.951-68.214,113.595c-32.038,29.82-71.571,50.373-114.324,59.435c-8.678,1.839-14.934,8.726-15.938,17.543
	c-1.007,8.846,3.554,16.989,11.622,20.747c13.484,6.28,27.667,11.432,42.155,15.314c22.082,5.917,44.494,8.844,66.762,8.844
	c44.346,0,88.12-11.611,127.568-34.337c59.249-34.135,101.695-89.287,119.518-155.295C472.21,186.202,391.425,45.26,255.359,8.188z
	 M420.036,318.209c-16.714,61.898-56.517,113.617-112.079,145.628c-55.567,32.015-120.287,40.505-182.234,23.907
	c-13.595-3.643-26.901-8.476-39.547-14.365c-2.583-1.203-2.612-3.53-2.504-4.474c0.106-0.931,0.649-3.157,3.393-3.739
	c45.583-9.662,87.731-31.574,121.888-63.365c35.12-32.69,60.278-74.58,72.756-121.148c12.478-46.565,11.636-95.423-2.434-141.291
	c-13.683-44.61-39.228-84.659-73.874-115.82c-2.087-1.878-1.44-4.085-1.066-4.948c0.356-0.818,1.426-2.634,3.905-2.634
	c0.152,0,0.31,0.006,0.472,0.021c14.247,1.252,28.53,3.811,42.453,7.604C378.759,58.349,454.515,190.517,420.036,318.209z"/>
<g>
</g>
<g>
</g>
<g>
</g>
<g>
</g>
<g>
</g>
<g>
</g>
<g>
</g>
<g>
</g>
<g>
</g>
<g>
</g>
<g>
</g>
<g>
</g>
<g>
</g>
<g>
</g>
<g>
</g>
</svg>
